<svg preserveAspectRatio="none" overflow="visible" style="display: block;" width="14.1667" height="10" viewBox="0 0 14.1667 10" fill="none" xmlns="http://www.w3.org/2000/svg">
<g id="Container">
<path id="Icon" d="M1.41667 10L3.33333 6.66667V6.66667V6.66667C2.41667 6.66667 1.63194 6.34028 0.979167 5.6875C0.326389 5.03472 0 4.25 0 3.33333C0 2.41667 0.326389 1.63194 0.979167 0.979167C1.63194 0.326389 2.41667 0 3.33333 0C4.25 0 5.03472 0.326389 5.6875 0.979167C6.34028 1.63194 6.66667 2.41667 6.66667 3.33333C6.66667 3.65278 6.62847 3.94792 6.55208 4.21875C6.47569 4.48958 6.36111 4.75 6.20833 5L3.33333 10H1.41667V10M8.91667 10L10.8333 6.66667V6.66667V6.66667C9.91667 6.66667 9.13194 6.34028 8.47917 5.6875C7.82639 5.03472 7.5 4.25 7.5 3.33333C7.5 2.41667 7.82639 1.63194 8.47917 0.979167C9.13194 0.326389 9.91667 0 10.8333 0C11.75 0 12.5347 0.326389 13.1875 0.979167C13.8403 1.63194 14.1667 2.41667 14.1667 3.33333C14.1667 3.65278 14.1285 3.94792 14.0521 4.21875C13.9757 4.48958 13.8611 4.75 13.7083 5L10.8333 10H8.91667V10" fill="#9F3C16"/>
</g>
</svg>
