<svg preserveAspectRatio="none" overflow="visible" style="display: block;" width="14" height="14" viewBox="0 0 14 14" fill="none" xmlns="http://www.w3.org/2000/svg">
<g id="droplets">
<path id="Vector" d="M7.32661 3.84944C7.7278 3.20846 8.0122 2.50144 8.16661 1.7612C8.45828 3.21947 9.33328 4.6194 10.5 5.5527C11.6666 6.48599 12.25 7.59427 12.25 8.76088C12.2533 9.56718 12.0171 10.3563 11.5714 11.0283C11.1257 11.7002 10.4905 12.2246 9.74636 12.5352C9.00221 12.8457 8.1826 12.9283 7.39146 12.7724C6.60031 12.6166 5.87324 12.2294 5.30243 11.6599M4.08335 9.50768C5.36669 9.50768 6.41669 8.44022 6.41669 7.14528C6.41669 6.46865 6.08419 5.82701 5.41919 5.28453C4.75418 4.74206 4.25251 3.93709 4.08335 3.0913C3.91418 3.93709 3.41834 4.74789 2.74751 5.28453C2.07667 5.82118 1.75 6.47448 1.75 7.14528C1.75 8.44022 2.80001 9.50768 4.08335 9.50768Z" stroke="#8A5A3C" stroke-linecap="round"/>
</g>
</svg>
